<!-- icon666.com - MILLIONS OF FREE VECTOR ICONS --><svg id="Layer_1" viewBox="0 0 512 512" xmlns="http://www.w3.org/2000/svg" data-name="Layer 1"><path d="m152.462 331.072c-31.662 38.978-69.927 65.875-91.745 79.386h217.312c-1.572-6.611-5.668-18.014-16.065-26.283-12.019-9.558-29.307-12.663-51.388-9.233-14.93 2.322-26.391-.81-34.064-9.306-11.767-13.029-10.982-35.486-9.065-49.346a92.59 92.59 0 0 0 -14.985 14.782z"></path><path d="m104.481 172.99a17.544 17.544 0 0 1 35.088 0v74.141a95.14 95.14 0 0 0 49.683 13.927c52.5 0 95.21-42.527 95.21-94.8s-42.711-94.8-95.21-94.8-95.209 42.527-95.209 94.8a93.691 93.691 0 0 0 10.438 43.2z"></path><path d="m64.912 350.405a9.789 9.789 0 0 1 9.786 9.7l.2 9.082h-2.937a5 5 0 0 0 0 10h3.148l.206 9.571c3.684-2.613 7.537-5.443 11.515-8.487l-.008-17.533h.74a5 5 0 1 0 0-10h-.745v-11.3h3.383a5 5 0 1 0 0-10h-3.392v-1.238a20.642 20.642 0 0 1 20.65-20.588h11.461a10.65 10.65 0 0 0 7.546-3.124h4.413a5 5 0 0 0 0-10h-1.308v-14.056h2.308a5 5 0 0 0 0-10h-2.308v-34.6h3.107a5 5 0 0 0 0-10h-3.107v-21.132h1.308a5 5 0 0 0 0-10h-1.308v-15.449h1.107a5 5 0 0 0 0-10h-1.321a7.545 7.545 0 0 0 -14.874 1.739v4.853h-1.642a5 5 0 0 0 0 10h1.642v43.577h-2.282a5 5 0 0 0 0 10h2.285v42.258a13.837 13.837 0 0 1 -27.674 0v-23.5a6.053 6.053 0 0 0 -12.106 0v70.362a12.605 12.605 0 0 1 -12.27 12.514 12.532 12.532 0 0 1 -12.835-12.454l-.4-88.258h1.575a5 5 0 1 0 0-10h-1.968a6.167 6.167 0 0 0 -11.967 2.05v4.849h-4.251a5 5 0 0 0 0 10h4.251v24.688h-4.251a5 5 0 0 0 0 10h4.251v25.878h-2.845a5 5 0 0 0 0 10h2.845v11.3a19.11 19.11 0 0 0 .135 2.192h-2.057a5 5 0 0 0 0 10h6.3a19.4 19.4 0 0 0 15.017 7.1z"></path><path d="m209.04 365.061c25.027-3.891 44.97-.059 59.271 11.386 13.931 11.148 18.5 26.413 19.966 34.011h69.552c-21.416-10.835-53.924-32.827-88.2-76.311-16.626-21.093-37.939-32.8-60.012-32.961h-.455a64.71 64.71 0 0 0 -30.242 7.672 116.94 116.94 0 0 0 -2.5 18.854c-.458 9.946.475 23.438 7.523 31.232 5.344 5.91 13.557 7.909 25.097 6.117z"></path><path d="m278.727 329.526c52.549 65.917 101.019 79.631 106.178 80.932h45.731c-22.05-8.88-49.291-25.144-65.633-54.2-15.91-28.284-29.252-44.716-43.046-52.95-15.987 3.233-30.918 12.238-43.23 26.218z"></path><path d="m396.07 334.147c-15.909-20.183-36.792-31.555-58.929-32.147 11.8 10.112 23.277 25.712 36.577 49.358 26.864 47.76 88.189 58.331 93.073 59.1h17.62c-22.26-11.258-54.52-33.405-88.341-76.311z"></path><path d="m405.745 291.185a5 5 0 0 0 0 10h5.255v35.47c6.529 7.779 12.963 14.765 19.239 21.041v-9.217h5.207a5 5 0 0 0 0-10h-5.207v-14.779h6.947a5 5 0 0 0 0-10h-6.452a25.782 25.782 0 0 1 25.269-20.678h3.61a15.781 15.781 0 0 0 13.1-6.978h5.253a5 5 0 0 0 0-10h-2.586v-7.262h3.829a5 5 0 0 0 0-10h-7.48a7.393 7.393 0 0 0 -11.145 6.324v3.794a15.171 15.171 0 0 1 -30.341 0v-19.881l4.2-.215a5 5 0 0 0 -.511-9.988l-5.21.267a9.623 9.623 0 0 0 -17.722 5.133v1.6h-5.259a5 5 0 0 0 0 10h5.259v35.369z"></path><path d="m60.088 440.542h6.5a5 5 0 0 0 0-10h-6.5a5 5 0 0 0 0 10z"></path><path d="m87.691 440.542h94.3a5 5 0 0 0 0-10h-94.3a5 5 0 1 0 0 10z"></path></svg>