<!-- icon666.com - MILLIONS OF FREE VECTOR ICONS --><svg id="solid" viewBox="0 0 512 512" xmlns="http://www.w3.org/2000/svg"><path d="m498.8286 325.1714-6.7017-6.7017c-14.9438-14.9434-27.5532-31.8979-37.5459-50.4697h33.4189c1.5376 0 2.939-.8813 3.605-2.2671.6665-1.3862.479-3.0308-.4814-4.2314l-16.1963-20.2461c-9.0254-11.2817-16.1616-23.7915-21.2593-37.2554h10.332c1.6177 0 3.0762-.9746 3.6953-2.4692s.2773-3.2153-.8667-4.3594c-15.5405-15.54-27.5581-33.7656-35.7202-54.1704l-3.3945-8.4863c-.623-1.5581-2.1343-2.5674-3.8315-2.5127-1.6777.0493-3.146 1.1406-3.6772 2.7329l-8.8447 26.5337c-4.255 12.765-11.3815 24.5881-20.6635 34.3317-2.9075-4.7667-5.6031-9.6633-8.0558-14.6598l-9.8896-20.1455c-.7202-1.4673-2.2651-2.3506-3.8896-2.2261-1.6299.1221-3.021 1.2231-3.5146 2.7812l-2.4854 7.8486c-6.2383 19.6992-15.687 38.0684-28.084 54.5972-.9087 1.2119-1.0552 2.8335-.3774 4.189.6772 1.355 2.0625 2.2109 3.5776 2.2109h13.708c-5.77 10.5732-12.8901 20.354-21.1826 29.0947l-10.064 10.6079c-1.1123 1.1724-1.4097 2.8989-.7544 4.376.6558 1.4771 2.1084 2.4014 3.7515 2.376l20.311-.4834-6.9712 15.104c-3.6143 7.8315-7.9336 15.3984-12.8394 22.4937l-3.3777 4.4236c-9.488-17.9656-17.1429-37.2935-22.6349-57.4299l-4.498-16.4932c-.5459-2.0024-2.5366-3.2544-4.5742-2.8833-38.2124 6.9478-77.2627 9.6626-116.0713 8.0674l-37.3418-1.5347c-1.46-.0625-2.8594.6938-3.6084 1.9629-.0217.0369-4.3087 10.1569-4.3087 10.1569l-9.6137-24.0343h18.0918c1.6177 0 3.0762-.9746 3.6953-2.4692s.2769-3.2153-.8667-4.3594c-15.6948-15.6943-29.4424-33.3018-40.8608-52.3335l-6.5376-10.896c-.8037-1.3394-2.3115-2.0884-3.8667-1.918-1.5527.1704-2.8643 1.229-3.3584 2.7109l-5.2671 15.8013c-6.8257 20.4785-18.502 39.3711-33.7666 54.6353-1.3115 1.312-1.5493 3.3535-.5742 4.9316.9761 1.5781 2.9092 2.2783 4.668 1.6919l14.8384-4.9463-.8062 1.6123c-7.1089 14.2178-15.5493 27.875-25.0879 40.5928l-9.4097 12.5464c-.9087 1.2119-1.0552 2.8335-.3774 4.189.6777 1.355 2.0625 2.2109 3.5776 2.2109h10.2871c-5.1772 13.082-13.0591 25.1152-23.0044 35.0601l-6.1113 6.1113c-1.1436 1.144-1.4858 2.8647-.8667 4.3594s2.0776 2.4692 3.6953 2.4692h66.9832c-5.7757 7.3674-37.2423 41.3222-59.4995 55.5361l-.6583.439-6.8402.0249c-2.209.0078-3.9932 1.8057-3.9854 4.0146.0083 2.2041 1.7974 3.9854 4 3.9854h.0146l470.2544-1.709c2.209-.0078 3.9932-1.8057 3.9854-4.0146s-1.7954-4.0186-4.0146-3.9854l-50.2397.1826v-46.4736h51c1.5005 0 2.8745-.8398 3.5596-2.1748.6846-1.3354.5645-2.9414-.3115-4.1597l-16.6304-23.1382 21.4121 5.353c1.7446.437 3.5654-.3452 4.4512-1.9097s.6187-3.5278-.6523-4.7993zm-212.493 77.8462-16.7794-9.8281c-8.1265-4.7593-15.9819-10.1523-23.3472-16.0283l-9.9781-7.9602 105.1866-1.141.1256 34.757-55.2075.2007zm-57.4921-29.4761 12.3762 9.8735c7.6641 6.1138 15.8374 11.7251 24.2935 16.6777l5.091 2.9819-42.1945.1533.4338-29.6865zm120.5981 1.1858s6.776 8.5089 9.9915 12.0874v15.9371l-9.89.036-.1014-28.0605zm17.9915 20.4719 7.64 7.4958-7.64.0277v-7.5236zm18.9536 7.3882-2.4077-2.3623v-44.2273l.021.0022h27.4541v46.5627l-25.0121.0909c-.0204-.0209-.0342-.0458-.0552-.0663zm-10.4077-10.2114s-6.7407-6.7297-8.5459-8.67v-51.373l8.5459-.0521v60.0952zm-16.5459-59.9944v42.1038c-.9658-1.1951-10.7216-13.6464-10.7554-13.6719-7.2156-8.8224-13.8916-18.2754-19.9721-28.2444zm-242.4517-26.6213 18.9416-45.0677 20.1238 33.1766c16.5649 27.3105 37.5713 51.3252 62.4365 71.3779l2.4373 1.9655-.5122 36.0446-53.7986.1956c-.0482-.0552-.0836-.1169-.1353-.1699-13.0107-13.3398-21.4927-30.1089-24.5288-48.4951l-2.6021-15.7559c-.3071-1.8569-1.8667-3.249-3.7461-3.3433-1.8789-.0933-3.5713 1.1343-4.062 2.9517l-6.9785 25.8208c-3.6021 13.3276-10.3267 25.8501-19.4473 36.2139l-2.6492 3.011-27.1182.0985-4.3825-30.421c19.8076-19.3242 35.2856-42.0591 46.0215-67.603zm-53.0675 74.605 3.4898 23.4479-30.6263.1113c8.9136-6.6616 17.8875-14.4504 27.1365-23.5592zm364.0861 22.1375-8.5459.031v-46.5337h8.5459zm36.9702-86.3831c-1.6284-.4077-3.3374.2456-4.2798 1.6343-.9429 1.3887-.918 3.2178.0615 4.5806l18.4473 25.6655h-95.1992l-.021.0022v-15.7703l38.0254-.2319c1.5801-.0098 3.0059-.9482 3.6396-2.3955s.3564-3.1318-.708-4.2993l-10.4341-11.4443c-8.2822-10.1143-15.1797-21.2129-20.5664-33.0815 6.936 1.9023 14.0874 2.6533 21.2793 2.229 1.4448-.085 2.731-.9438 3.3633-2.2456.6323-1.3022.5117-2.8438-.3145-4.0317l-5.3804-7.7339c-8.5713-12.3218-15.0332-25.8062-19.2485-40.1523l13.3105 1.3311c1.5723.1641 3.0884-.625 3.8716-1.9966.7832-1.3711.686-3.0752-.248-4.3486l-11.2139-15.2925c-1.4481-1.9747-2.8531-3.9856-4.2234-6.0215 10.7535-10.85 18.9875-24.2258 23.8186-38.7178l5.396-16.188c7.3525 17.8506 17.541 34.0835 30.3599 48.3892h-6.7061c-1.2856 0-2.4932.6182-3.2451 1.6611-.7515 1.043-.9561 2.3838-.5498 3.604 5.458 16.3735 13.6924 31.5098 24.4751 44.9878l10.9976 13.7471h-31.6777c-1.3862 0-2.6738.7178-3.4028 1.897-.7285 1.1792-.7949 2.6519-.1748 3.8921 10.0811 20.1626 23.0674 38.5952 38.6367 54.8525l-18.0889-4.522z"></path><path d="m123.2373 114.6758c1.0146-.4023 1.8208-1.2021 2.2314-2.2134 1.0049-2.4746 2.4819-4.6973 4.3877-6.6035.3828-.3823.8149-.772 1.3589-1.2256 1.1665-.9717 1.6821-2.52 1.3311-3.9966-.3623-1.5278-.5464-3.0879-.5464-4.6367 0-11.0278 8.9722-20 20-20 5.9629 0 11.5723 2.6343 15.3896 7.228.9697 1.1675 2.5166 1.6826 3.9956 1.3364 6.8198-1.6104 13.832.3687 18.7568 5.293 4.7231 4.7241 6.7695 11.4658 5.4741 18.0347-.3999 2.0278.811 4.0269 2.7939 4.6108 13.1152 3.8643 21.5898 9.9468 21.5898 15.4971 0 9.46-22.9985 20-56 20s-56-10.54-56-20c0-4.5601 5.6963-9.541 15.2373-13.3242z"></path><path d="m259.9741 172.2656c1.5605-1.0562 2.1729-3.0586 1.4688-4.8066-.9575-2.3789-1.4429-4.8887-1.4429-7.459 0-11.0278 8.9722-20 20-20 5.9541 0 11.5586 2.6289 15.3755 7.2119.9712 1.1665 2.5171 1.6836 3.9951 1.333 1.5273-.3618 3.0845-.5449 4.6294-.5449 11.0278 0 20 8.9722 20 20 0 .5566-.0273 1.1396-.084 1.7812-.1201 1.3613.4629 2.6899 1.5464 3.5225 2.9824 2.293 6.5376 6.0103 6.5376 10.6963 0 10.8413-18.3179 20-40 20s-40-9.1587-40-20c0-4.0879 2.832-8.2554 7.9741-11.7344z"></path></svg>