<!-- icon666.com - MILLIONS OF FREE VECTOR ICONS --><svg id="Capa_1" enable-background="new 0 0 512 512" viewBox="0 0 512 512" xmlns="http://www.w3.org/2000/svg"><g id="XMLID_391_"><path id="XMLID_392_" d="m0 464.199h512v46.758h-512z"></path><path id="XMLID_410_" d="m317.593 188.579 23.548 11.774 6.003 19.438 15.685-21.848-39.153-73.987-19.295 37.484z"></path><path id="XMLID_412_" d="m384.352 433.105h102.921l-108.796-205.592-42.163 58.73-20.018-64.82-21.19-10.595-7.849-16.123-14.33 27.839z"></path><path id="XMLID_413_" d="m146.781 197.377 19.356 34.731 16.416-26.367 22.835 3.575 15.044-21.925-33.86-63.986z"></path><path id="XMLID_414_" d="m197.506 238.404-32.796 52.675-34.773-62.39-69.788 129.737 20.218 16.957 32.998-27.677 32.997 27.677 32.998-27.677 47.977 40.24v45.159h123.123l-114.209-215.821-16.842 24.549z"></path><path id="XMLID_416_" d="m131.384 401.919-18.019-15.114-18.02 15.114v32.323h36.039z"></path><path id="XMLID_417_" d="m65.388 434.242v-32.323l-18.019-15.114-18.02 15.114v32.323z"></path><path id="XMLID_418_" d="m197.38 434.242v-32.323l-18.02-15.114-18.019 15.114v32.323z"></path><path id="XMLID_419_" d="m106.116 84.476c23.002 0 41.716-18.714 41.716-41.716s-18.714-41.717-41.716-41.717-41.716 18.714-41.716 41.717 18.714 41.716 41.716 41.716z"></path><path id="XMLID_420_" d="m506.025 24.768-21.182-21.182-23.304 23.304-23.24-23.239-21.182 21.183 44.422 44.421z"></path><path id="XMLID_421_" d="m456.011 108.356-21.182-21.182-23.304 23.304-23.24-23.239-21.182 21.182 44.422 44.422z"></path></g></svg>